<svg width="28" height="28" viewBox="0 0 28 28" fill="none" xmlns="http://www.w3.org/2000/svg">
<g clip-path="url(#clip0_419_945)">
<path d="M23.8017 4.0706C22.5183 2.77471 20.9897 1.74738 19.305 1.04851C17.6203 0.349645 15.8134 -0.00675644 13.9895 9.69938e-05C6.34725 9.69938e-05 0.119 6.2266 0.112 13.8706C0.112 16.3188 0.7525 18.7006 1.96175 20.8093L0 28.0001L7.357 26.0716C9.39135 27.1815 11.6721 27.7622 13.9895 27.7603H13.9965C21.6405 27.7603 27.867 21.5338 27.874 13.8828C27.8756 12.0595 27.5164 10.2538 26.8172 8.56975C26.118 6.88573 25.0943 5.35667 23.8017 4.0706ZM13.9895 25.4118C11.9231 25.4102 9.89489 24.8542 8.1165 23.8018L7.6965 23.5498L3.332 24.6943L4.4975 20.4366L4.2245 19.9973C3.06916 18.1604 2.45813 16.0336 2.46225 13.8636C2.46225 7.5181 7.637 2.3416 13.9965 2.3416C15.5115 2.33888 17.0121 2.63608 18.4118 3.21606C19.8114 3.79604 21.0824 4.64733 22.1515 5.72085C23.2241 6.79036 24.0744 8.06155 24.6535 9.46117C25.2325 10.8608 25.5289 12.3612 25.5255 13.8758C25.5185 20.2441 20.3437 25.4118 13.9895 25.4118ZM20.3157 16.7773C19.971 16.6041 18.2682 15.7658 17.948 15.6468C17.6295 15.5331 17.3967 15.4736 17.1692 15.8201C16.9365 16.1648 16.2715 16.9506 16.072 17.1763C15.8725 17.4091 15.666 17.4353 15.3195 17.2638C14.9747 17.0888 13.8565 16.7248 12.5335 15.5401C11.501 14.6213 10.8097 13.4838 10.6032 13.1391C10.4037 12.7926 10.584 12.6071 10.7572 12.4338C10.9095 12.2798 11.102 12.0278 11.2752 11.8283C11.4502 11.6288 11.508 11.4818 11.6217 11.2508C11.7355 11.0163 11.6812 10.8168 11.5955 10.6436C11.508 10.4703 10.8167 8.7606 10.5245 8.0711C10.2445 7.39035 9.95925 7.48485 9.74575 7.4761C9.54625 7.46385 9.3135 7.46385 9.08075 7.46385C8.905 7.46832 8.73207 7.50902 8.57278 7.5834C8.41349 7.65777 8.27126 7.76423 8.155 7.8961C7.8365 8.2426 6.94575 9.08085 6.94575 10.7906C6.94575 12.5003 8.18825 14.1436 8.36325 14.3763C8.53475 14.6091 10.8027 18.1073 14.2835 19.6123C15.106 19.9711 15.7535 20.1828 16.2592 20.3438C17.0905 20.6098 17.8412 20.5696 18.4397 20.4838C19.1047 20.3823 20.489 19.6438 20.7812 18.8336C21.0682 18.0216 21.0682 17.3286 20.9807 17.1833C20.895 17.0363 20.6622 16.9506 20.3157 16.7773Z" fill="white"/>
</g>
<defs>
<clipPath id="clip0_419_945">
<rect width="28" height="28" fill="white"/>
</clipPath>
</defs>
</svg>
