<svg width="45" height="45" viewBox="0 0 45 45" fill="none" xmlns="http://www.w3.org/2000/svg">
<path d="M33.7323 36.1527C33.5154 32.3148 31.3264 31.0966 28.125 30.0295C25.6789 29.2146 25.0055 26.6464 24.8207 25.2836" stroke="#524942" stroke-width="2.05714" stroke-miterlimit="10"/>
<path d="M20.1777 25.282C19.9961 26.6384 19.3355 29.2098 16.875 30.0295C13.6736 31.0966 11.4814 32.3116 11.2645 36.1495" stroke="#524942" stroke-width="2.05714" stroke-miterlimit="10"/>
<path d="M22.5 25.7143C18.9498 25.7143 16.0714 22.8359 16.0714 19.2857L16.0714 17.6786C16.0714 14.1284 18.9498 11.25 22.5 11.25C26.0502 11.25 28.9286 14.1284 28.9286 17.6786V19.2857C28.9286 22.8359 26.0502 25.7143 22.5 25.7143Z" stroke="#524942" stroke-width="2.05714" stroke-miterlimit="10" stroke-linecap="square"/>
<path d="M22.5 40.1786C32.2636 40.1786 40.1786 32.2636 40.1786 22.5C40.1786 12.7364 32.2636 4.82144 22.5 4.82144C12.7364 4.82144 4.82144 12.7364 4.82144 22.5C4.82144 32.2636 12.7364 40.1786 22.5 40.1786Z" stroke="#524942" stroke-width="2.05714" stroke-miterlimit="10" stroke-linecap="square"/>
</svg>
