<svg width="46" height="46" viewBox="0 0 46 46" fill="none" xmlns="http://www.w3.org/2000/svg">
<g clip-path="url(#clip0_695_504)">
<path d="M34 30C34 31.654 32.654 33 31 33C31 33.552 30.552 34 30 34C29.448 34 29 33.552 29 33H28.732C27.664 33 26.669 32.426 26.134 31.501C25.858 31.023 26.021 30.412 26.499 30.135C26.976 29.858 27.589 30.022 27.865 30.5C28.043 30.808 28.376 31 28.732 31H31C31.551 31 32 30.552 32 30C32 29.622 31.729 29.302 31.356 29.24L28.314 28.733C26.973 28.51 25.999 27.36 25.999 26C25.999 24.346 27.345 23 28.999 23C28.999 22.448 29.447 22 29.999 22C30.551 22 30.999 22.448 30.999 23H31.267C32.335 23 33.33 23.574 33.865 24.499C34.141 24.977 33.978 25.588 33.5 25.865C33.023 26.142 32.411 25.978 32.134 25.5C31.956 25.192 31.623 25 31.267 25H28.999C28.448 25 27.999 25.448 27.999 26C27.999 26.378 28.27 26.698 28.643 26.76L31.685 27.267C33.026 27.49 34 28.64 34 30ZM24 12.538C24 11.573 24.538 10.69 25.444 10.244C26.015 9.96301 26.672 9.95401 27.289 10.113C30.562 10.955 33.158 13.598 33.933 16.896C34.102 17.616 33.939 18.355 33.487 18.926C32.938 19.619 32.041 20.001 30.962 20.001H27C25.343 20.001 24 18.658 24 17.001V12.538ZM26 17C26 17.552 26.448 18 27 18H30.962C31.405 18 31.763 17.882 31.92 17.684C31.995 17.59 32.016 17.481 31.986 17.352C31.369 14.725 29.273 12.629 26.646 12.014C26.604 12.004 26.564 12 26.526 12C26.377 12 26.265 12.068 26.206 12.115C26.075 12.219 26 12.373 26 12.538V17ZM24 22H22V15.251C22 14.313 21.575 13.442 20.834 12.862C20.122 12.304 19.216 12.107 18.353 12.321C13.373 13.552 9.862 18.174 10.004 23.312C10.163 29.044 14.956 33.837 20.689 33.996C20.792 33.999 20.894 34 20.997 34C21.74 34 22.48 33.926 23.2 33.78C23.741 33.67 24.091 33.142 23.981 32.601C23.871 32.059 23.343 31.708 22.802 31.82C22.131 31.956 21.434 32.013 20.745 31.997C16.055 31.867 12.134 27.946 12.004 23.256C11.888 19.052 14.76 15.27 18.833 14.263C19.191 14.175 19.47 14.334 19.602 14.437C19.852 14.632 20 14.937 20 15.251V23C20 23.552 20.448 24 21 24H24C24.552 24 25 23.552 25 23C25 22.448 24.552 22 24 22Z" fill="#545353"/>
</g>
<circle cx="23" cy="23" r="22" stroke="#545353" stroke-width="2"/>
<defs>
<clipPath id="clip0_695_504">
<rect width="24" height="24" fill="white" transform="translate(10 10)"/>
</clipPath>
</defs>
</svg>
