<svg width="46" height="46" viewBox="0 0 46 46" fill="none" xmlns="http://www.w3.org/2000/svg">
<g clip-path="url(#clip0_695_505)">
<path d="M31.95 15.5511L28.465 12.0661C27.143 10.7431 25.385 10.0151 23.515 10.0151H19C16.727 10.0151 14.737 11.5501 14.163 13.7471C14.023 14.2811 14.343 14.8281 14.877 14.9681C15.415 15.1051 15.959 14.7871 16.097 14.2531C16.442 12.9361 17.636 12.0151 19 12.0151H23.515C23.68 12.0151 23.838 12.0471 24 12.0621V17.0151C24 18.6691 25.346 20.0151 27 20.0151H31.951C31.967 20.1771 32 20.3371 32 20.5001V29.0151C32 30.6691 30.654 32.0151 29 32.0151H19C18.31 32.0151 17.662 31.7871 17.125 31.3581C16.695 31.0151 16.066 31.0821 15.719 31.5121C15.374 31.9441 15.443 32.5731 15.874 32.9181C16.756 33.6251 17.866 34.0151 18.999 34.0151H28.999C31.756 34.0151 33.999 31.7721 33.999 29.0151V20.5001C33.999 18.6311 33.271 16.8731 31.949 15.5511H31.95ZM27 18.0151C26.449 18.0151 26 17.5671 26 17.0151V12.6981C26.376 12.9151 26.735 13.1641 27.05 13.4791L30.535 16.9641C30.846 17.2751 31.094 17.6361 31.311 18.0141H26.999L27 18.0151ZM20 26.0001H28C28.552 26.0001 29 26.4471 29 27.0001C29 27.5531 28.552 28.0001 28 28.0001H20C19.448 28.0001 19 27.5531 19 27.0001C19 26.4471 19.448 26.0001 20 26.0001ZM17 28.8471V24.0971C17.907 23.3631 18.5 22.2551 18.5 21.0001C18.5 18.7941 16.706 17.0001 14.5 17.0001C12.294 17.0001 10.5 18.7941 10.5 21.0001C10.5 22.2551 11.093 23.3631 12 24.0971V28.8471C12 29.4701 12.791 29.7371 13.169 29.2421L14.5 27.4991L15.831 29.2421C16.209 29.7371 17 29.4701 17 28.8471ZM14.5 19.0001C15.603 19.0001 16.5 19.8971 16.5 21.0001C16.5 22.1031 15.603 23.0001 14.5 23.0001C13.397 23.0001 12.5 22.1031 12.5 21.0001C12.5 19.8971 13.397 19.0001 14.5 19.0001ZM21 24.0001C20.448 24.0001 20 23.5531 20 23.0001C20 22.4471 20.448 22.0001 21 22.0001H28C28.552 22.0001 29 22.4471 29 23.0001C29 23.5531 28.552 24.0001 28 24.0001H21Z" fill="#545353"/>
</g>
<circle cx="23" cy="23" r="22" stroke="#545353" stroke-width="2"/>
<defs>
<clipPath id="clip0_695_505">
<rect width="24" height="24" fill="white" transform="translate(10 10)"/>
</clipPath>
</defs>
</svg>
