<svg width="46" height="46" viewBox="0 0 46 46" fill="none" xmlns="http://www.w3.org/2000/svg">
<g clip-path="url(#clip0_695_503)">
<path d="M27.232 19.6809L23.997 23.1569C23.446 23.7099 22.746 23.9999 22 23.9999C21.254 23.9999 20.555 23.7099 20.028 23.1829L18.552 21.7069C18.161 21.3159 18.161 20.6839 18.552 20.2929C18.943 19.9019 19.575 19.9019 19.966 20.2929L21.442 21.7689C21.74 22.0669 22.26 22.0669 22.557 21.7689L25.768 18.3189C26.145 17.9139 26.778 17.8929 27.181 18.2679C27.585 18.6439 27.608 19.2769 27.232 19.6809ZM34.925 31.1309C34.699 31.6739 34.196 32.0109 33.609 32.0109H32.047V33.5729C32.047 34.4659 31.318 34.9999 30.612 34.9999C30.235 34.9999 29.89 34.8549 29.615 34.5799L25.249 30.2139C25.249 30.2139 25.246 30.2079 25.243 30.2049C25.076 30.3389 24.912 30.4759 24.718 30.5839C24.196 30.8739 23.61 31.0189 23.025 31.0189C22.44 31.0189 21.854 30.8739 21.331 30.5839C21.134 30.4749 20.966 30.3358 20.796 30.1989C20.792 30.2038 20.79 30.2099 20.786 30.2149L16.42 34.5809C16.146 34.8559 15.801 35.0009 15.423 35.0009C14.718 35.0009 13.989 34.4669 13.989 33.5739V32.0119H12.427C11.84 32.0119 11.336 31.6759 11.111 31.1339C10.886 30.5899 11.005 29.9959 11.42 29.5809L14.961 26.0409C14.905 25.6189 14.918 25.1979 15.012 24.7849C15.077 24.4999 14.94 24.1929 14.672 24.0199C14.173 23.6979 13.769 23.2609 13.47 22.7229C13.185 22.2079 13.035 21.6179 13.038 21.0139C13.035 20.4189 13.184 19.8279 13.47 19.3129C13.768 18.7739 14.173 18.3369 14.672 18.0159C14.94 17.8429 15.077 17.5359 15.012 17.2519C14.878 16.6589 14.898 16.0519 15.071 15.4469C15.401 14.2989 16.318 13.3819 17.466 13.0519C18.07 12.8789 18.677 12.8589 19.269 12.9929C19.556 13.0559 19.861 12.9199 20.034 12.6519C20.355 12.1539 20.792 11.7499 21.331 11.4509C22.375 10.8719 23.673 10.8719 24.718 11.4509C25.257 11.7499 25.693 12.1539 26.014 12.6529C26.187 12.9209 26.497 13.0589 26.779 12.9929C27.37 12.8579 27.978 12.8789 28.583 13.0519C29.731 13.3819 30.649 14.2989 30.979 15.4469C31.152 16.0529 31.172 16.6609 31.038 17.2529C30.974 17.5369 31.11 17.8439 31.378 18.0169C31.877 18.3389 32.282 18.7749 32.58 19.3139C32.865 19.8289 33.015 20.4189 33.012 21.0229C33.015 21.6179 32.866 22.2089 32.58 22.7239C32.282 23.2619 31.877 23.6989 31.379 24.0209C31.11 24.1939 30.973 24.5009 31.038 24.7859C31.133 25.2029 31.147 25.6279 31.088 26.0549L34.616 29.5829C35.031 29.9979 35.149 30.5919 34.925 31.1339V31.1309ZM19.104 29.0679C18.565 29.1639 18.015 29.1389 17.466 28.9829C16.84 28.8039 16.294 28.4379 15.863 27.9659L13.818 30.0109H14.99C15.542 30.0109 15.99 30.4589 15.99 31.0109V32.1819L19.105 29.0669L19.104 29.0679ZM27.222 27.0909C27.481 27.1499 27.754 27.1389 28.033 27.0599C28.516 26.9219 28.918 26.5199 29.057 26.0369C29.136 25.7589 29.147 25.4859 29.088 25.2259C28.838 24.1249 29.323 22.9649 30.295 22.3379C30.514 22.1959 30.695 21.9989 30.832 21.7519C30.951 21.5369 31.014 21.2839 31.013 21.0209C31.014 20.7499 30.951 20.4969 30.832 20.2809C30.695 20.0329 30.515 19.8359 30.295 19.6949C29.323 19.0679 28.839 17.9079 29.088 16.8079C29.147 16.5479 29.137 16.2749 29.057 15.9959C28.919 15.5139 28.516 15.1119 28.033 14.9729C27.756 14.8929 27.483 14.8839 27.222 14.9419C26.125 15.1939 24.963 14.7079 24.335 13.7359C24.194 13.5169 23.997 13.3359 23.75 13.1989C23.31 12.9549 22.741 12.9559 22.302 13.1989C22.054 13.3369 21.857 13.5169 21.716 13.7359C21.09 14.7069 19.931 15.1939 18.828 14.9429C18.567 14.8839 18.296 14.8939 18.018 14.9739C17.535 15.1129 17.132 15.5139 16.994 15.9969C16.914 16.2749 16.904 16.5479 16.963 16.8089C17.213 17.9079 16.728 19.0689 15.756 19.6959C15.537 19.8369 15.357 20.0339 15.22 20.2819C15.1 20.4979 15.037 20.7509 15.039 21.0129C15.038 21.2839 15.101 21.5369 15.22 21.7529C15.358 22.0009 15.538 22.1979 15.758 22.3399C16.729 22.9659 17.214 24.1269 16.964 25.2269C16.905 25.4859 16.916 25.7599 16.996 26.0389C17.135 26.5209 17.536 26.9229 18.019 27.0609C18.296 27.1409 18.569 27.1509 18.828 27.0919C19.021 27.0489 19.216 27.0269 19.409 27.0269C20.319 27.0269 21.2 27.4969 21.717 28.2979C21.859 28.5169 22.056 28.6968 22.303 28.8349C22.742 29.0788 23.31 29.0788 23.751 28.8349C23.998 28.6979 24.195 28.5169 24.336 28.2979C24.964 27.3269 26.127 26.8409 27.224 27.0909H27.222ZM32.219 30.0109L30.181 27.9729C29.751 28.4419 29.207 28.8039 28.583 28.9819C28.028 29.1399 27.473 29.1639 26.93 29.0649L30.047 32.1819V31.0109C30.047 30.4589 30.495 30.0109 31.047 30.0109H32.219Z" fill="#545353"/>
</g>
<circle cx="23" cy="23" r="22" stroke="#545353" stroke-width="2"/>
<defs>
<clipPath id="clip0_695_503">
<rect width="24" height="24" fill="white" transform="translate(11 11)"/>
</clipPath>
</defs>
</svg>
