<svg width="31" height="31" viewBox="0 0 31 31" fill="none" xmlns="http://www.w3.org/2000/svg">
<g clip-path="url(#clip0_8_17)">
<path d="M6.88901 3.33796C6.77771 3.19479 6.63723 3.07694 6.47688 2.99223C6.31653 2.90753 6.14 2.85791 5.959 2.84668C5.77801 2.83544 5.59669 2.86285 5.4271 2.92708C5.25751 2.9913 5.10352 3.09087 4.97537 3.21918L3.02591 5.17053C2.11528 6.08305 1.77969 7.37452 2.1775 8.50762C3.83045 13.1967 6.516 17.4544 10.0357 20.9661C13.5473 24.4857 17.805 27.1713 22.4941 28.8242C23.6272 29.2221 24.9187 28.8865 25.8312 27.9758L27.7807 26.0264C27.909 25.8982 28.0086 25.7442 28.0728 25.5746C28.137 25.4051 28.1644 25.2237 28.1532 25.0427C28.142 24.8618 28.0923 24.6852 28.0076 24.5249C27.9229 24.3645 27.8051 24.224 27.6619 24.1127L23.3124 20.7304C23.1593 20.612 22.9814 20.5298 22.792 20.49C22.6026 20.4502 22.4067 20.4537 22.2189 20.5004L18.0899 21.5317C17.5388 21.6685 16.9616 21.6607 16.4143 21.5091C15.867 21.3575 15.3681 21.0672 14.9659 20.6663L10.3355 16.034C9.93421 15.6319 9.64356 15.1331 9.49162 14.5858C9.33968 14.0385 9.33161 13.4613 9.46819 12.9099L10.5014 8.78099C10.548 8.59318 10.5516 8.39724 10.5118 8.20786C10.4719 8.01848 10.3897 7.84058 10.2713 7.68749L6.88901 3.33796ZM3.55193 1.79762C3.88186 1.46759 4.27822 1.21152 4.7147 1.04642C5.15119 0.881324 5.6178 0.810971 6.08355 0.840036C6.54931 0.869102 7.00356 0.99692 7.41613 1.215C7.8287 1.43309 8.19015 1.73645 8.47649 2.10494L11.8588 6.45258C12.4791 7.25008 12.6978 8.28892 12.4527 9.2693L11.4214 13.3982C11.3685 13.6121 11.3715 13.836 11.4303 14.0484C11.4891 14.2607 11.6016 14.4543 11.757 14.6105L16.3893 19.2429C16.5457 19.3986 16.7397 19.5113 16.9524 19.5701C17.1651 19.6288 17.3894 19.6317 17.6035 19.5784L21.7306 18.5472C22.2144 18.4269 22.7193 18.4178 23.2071 18.5207C23.695 18.6236 24.1532 18.8357 24.5473 19.141L28.8949 22.5234C30.4579 23.7394 30.6012 26.049 29.2022 27.4461L27.2528 29.3955C25.8576 30.7907 23.7724 31.4034 21.8286 30.719C16.8525 28.9705 12.3349 26.1221 8.61223 22.3857C4.87615 18.6636 2.02771 14.1467 0.278944 9.17126C-0.403556 7.22934 0.209186 5.14225 1.60435 3.74708L3.55193 1.79762ZM20.7389 1.77688C20.7389 1.52687 20.8382 1.2871 21.015 1.11031C21.1918 0.933523 21.4315 0.834205 21.6815 0.834205H29.223C29.473 0.834205 29.7128 0.933523 29.8896 1.11031C30.0663 1.2871 30.1657 1.52687 30.1657 1.77688V9.31832C30.1657 9.56834 30.0663 9.80811 29.8896 9.9849C29.7128 10.1617 29.473 10.261 29.223 10.261C28.973 10.261 28.7332 10.1617 28.5564 9.9849C28.3796 9.80811 28.2803 9.56834 28.2803 9.31832V4.05251L20.4636 11.8711C20.2866 12.0481 20.0465 12.1476 19.7962 12.1476C19.5459 12.1476 19.3058 12.0481 19.1288 11.8711C18.9518 11.6941 18.8523 11.454 18.8523 11.2037C18.8523 10.9534 18.9518 10.7133 19.1288 10.5363L26.9474 2.71956H21.6815C21.4315 2.71956 21.1918 2.62025 21.015 2.44346C20.8382 2.26667 20.7389 2.0269 20.7389 1.77688Z" fill="black"/>
</g>
<defs>
<clipPath id="clip0_8_17">
<rect width="30.1657" height="30.1657" fill="white" transform="translate(0 0.834259)"/>
</clipPath>
</defs>
</svg>
