<svg width="28" height="28" viewBox="0 0 28 28" fill="none" xmlns="http://www.w3.org/2000/svg">
<path d="M17.5583 5.83341C18.6979 6.05574 19.7451 6.61305 20.5661 7.43401C21.387 8.25496 21.9443 9.30222 22.1667 10.4417M17.5583 1.16675C19.9258 1.42976 22.1335 2.48995 23.819 4.17326C25.5044 5.85656 26.5673 8.06293 26.8333 10.4301M25.6667 19.7401V23.2401C25.668 23.565 25.6014 23.8866 25.4713 24.1843C25.3411 24.482 25.1502 24.7493 24.9108 24.9689C24.6713 25.1886 24.3887 25.3558 24.0809 25.4599C23.7731 25.564 23.4469 25.6027 23.1233 25.5734C19.5333 25.1833 16.0848 23.9566 13.055 21.9917C10.2361 20.2005 7.84623 17.8106 6.055 14.9917C4.08331 11.9482 2.85629 8.48291 2.47334 4.87675C2.44418 4.55413 2.48252 4.22897 2.58592 3.92198C2.68932 3.61498 2.8555 3.33289 3.0739 3.09364C3.29229 2.85439 3.55811 2.66324 3.85443 2.53236C4.15074 2.40147 4.47107 2.33372 4.795 2.33341H8.295C8.86119 2.32784 9.41009 2.52834 9.83939 2.89754C10.2687 3.26673 10.5491 3.77944 10.6283 4.34008C10.7761 5.46016 11.05 6.55993 11.445 7.61841C11.602 8.03599 11.6359 8.48981 11.5429 8.92611C11.4498 9.3624 11.2337 9.76288 10.92 10.0801L9.43834 11.5617C11.0992 14.4826 13.5175 16.9009 16.4383 18.5617L17.92 17.0801C18.2372 16.7664 18.6377 16.5502 19.074 16.4572C19.5103 16.3641 19.9641 16.3981 20.3817 16.5551C21.4402 16.9501 22.5399 17.224 23.66 17.3717C24.2267 17.4517 24.7443 17.7372 25.1143 18.1738C25.4843 18.6105 25.6809 19.1679 25.6667 19.7401Z" stroke="#202020" stroke-width="4" stroke-linecap="round" stroke-linejoin="round"/>
</svg>
