<svg width="29" height="28" viewBox="0 0 29 28" fill="none" xmlns="http://www.w3.org/2000/svg">
<path d="M24.5117 4.07058C23.2375 2.77471 21.7198 1.74737 20.0473 1.04851C18.3747 0.349644 16.5807 -0.00675641 14.7699 9.69935e-05C7.1825 9.69935e-05 0.998944 6.22658 0.991995 13.8705C0.991995 16.3188 1.6279 18.7005 2.82847 20.8093L0.880798 28L8.185 26.0715C10.2048 27.1814 12.4691 27.7621 14.7699 27.7603H14.7769C22.366 27.7603 28.5478 21.5338 28.5548 13.8828C28.5563 12.0594 28.1997 10.2537 27.5056 8.56972C26.8114 6.88571 25.7951 5.35665 24.5117 4.07058ZM14.7699 25.4118C12.7183 25.4101 10.7047 24.8541 8.93905 23.8018L8.52207 23.5498L4.18889 24.6943L5.34602 20.4365L5.07498 19.9973C3.92794 18.1604 3.32129 16.0336 3.32538 13.8635C3.32538 7.51807 8.46299 2.34159 14.7769 2.34159C16.281 2.33887 17.7709 2.63607 19.1605 3.21605C20.5501 3.79602 21.8119 4.64731 22.8733 5.72083C23.9382 6.79033 24.7824 8.06152 25.3573 9.46114C25.9323 10.8608 26.2265 12.3611 26.2231 13.8758C26.2162 20.244 21.0786 25.4118 14.7699 25.4118ZM21.0508 16.7773C20.7085 16.604 19.0179 15.7658 18.7 15.6468C18.3838 15.533 18.1527 15.4735 17.9268 15.82C17.6958 16.1648 17.0355 16.9505 16.8375 17.1763C16.6394 17.409 16.4344 17.4353 16.0904 17.2638C15.7481 17.0888 14.6379 16.7248 13.3244 15.54C12.2993 14.6213 11.613 13.4838 11.408 13.1391C11.2099 12.7926 11.3888 12.6071 11.5609 12.4338C11.712 12.2798 11.9031 12.0278 12.0751 11.8283C12.2489 11.6288 12.3062 11.4818 12.4191 11.2508C12.5321 11.0163 12.4782 10.8168 12.3931 10.6436C12.3062 10.4703 11.6199 8.76057 11.3298 8.07107C11.0518 7.39032 10.7686 7.48482 10.5566 7.47607C10.3585 7.46382 10.1275 7.46382 9.89638 7.46382C9.7219 7.46829 9.55021 7.50899 9.39206 7.58337C9.23391 7.65775 9.0927 7.7642 8.97727 7.89607C8.66106 8.24257 7.7767 9.08082 7.7767 10.7906C7.7767 12.5003 9.01029 14.1435 9.18403 14.3763C9.3543 14.609 11.606 18.1073 15.0618 19.6123C15.8784 19.971 16.5212 20.1828 17.0234 20.3438C17.8487 20.6098 18.594 20.5695 19.1882 20.4838C19.8484 20.3823 21.2228 19.6438 21.5129 18.8335C21.7979 18.0215 21.7979 17.3285 21.711 17.1833C21.6258 17.0363 21.3948 16.9505 21.0508 16.7773Z" fill="#202020"/>
</svg>
